<svg xmlns="http://www.w3.org/2000/svg" width="600" height="600" viewBox="0 0 600 600">
  <rect width="100%" height="100%" fill="#efe6d8"/>
  <g fill="none" stroke="#c9a962" stroke-opacity="0.12" stroke-width="6">
    <path d="M30 120c40-30 80 20 120 10s80-40 120-10 80 20 120 0 80-40 120-20"/>
    <path d="M30 220c40-30 80 20 120 10s80-40 120-10 80 20 120 0 80-40 120-20"/>
    <path d="M30 320c40-30 80 20 120 10s80-40 120-10 80 20 120 0 80-40 120-20"/>
    <path d="M30 420c40-30 80 20 120 10s80-40 120-10 80 20 120 0 80-40 120-20"/>
  </g>
</svg>